G04 (created by PCBNEW (2013-07-07 BZR 4022)-stable) date 1/16/2014 3:21:09 PM*
%MOIN*%
G04 Gerber Fmt 3.4, Leading zero omitted, Abs format*
%FSLAX34Y34*%
G01*
G70*
G90*
G04 APERTURE LIST*
%ADD10C,0.006*%
%ADD11C,0.00590551*%
%ADD12C,0.005*%
%ADD13C,0.0031*%
%ADD14R,0.0612441X0.112425*%
%ADD15C,0.06*%
%ADD16C,0.151795*%
%ADD17C,0.074*%
%ADD18C,0.136*%
%ADD19C,0.07*%
%ADD20R,0.143921X0.033685*%
%ADD21R,0.143921X0.0651811*%
%ADD22R,0.033685X0.029748*%
%ADD23R,0.0719X0.0305*%
%ADD24R,0.121874X0.121874*%
%ADD25R,0.0534X0.0455*%
%ADD26R,0.0848661X0.309276*%
%ADD27R,0.1006X0.077*%
%ADD28R,0.073X0.0652*%
%ADD29R,0.0652X0.073*%
%ADD30C,1.174*%
%ADD31C,0.414*%
G04 APERTURE END LIST*
G54D10*
X514Y25028D02*
X371Y25028D01*
X371Y25328D01*
X614Y25185D02*
X714Y25185D01*
X757Y25028D02*
X614Y25028D01*
X614Y25328D01*
X757Y25328D01*
X885Y25028D02*
X885Y25328D01*
X957Y25328D01*
X1000Y25314D01*
X1028Y25285D01*
X1042Y25257D01*
X1057Y25200D01*
X1057Y25157D01*
X1042Y25100D01*
X1028Y25071D01*
X1000Y25042D01*
X957Y25028D01*
X885Y25028D01*
X1585Y25028D02*
X1485Y25171D01*
X1414Y25028D02*
X1414Y25328D01*
X1528Y25328D01*
X1557Y25314D01*
X1571Y25300D01*
X1585Y25271D01*
X1585Y25228D01*
X1571Y25200D01*
X1557Y25185D01*
X1528Y25171D01*
X1414Y25171D01*
X1714Y25028D02*
X1714Y25228D01*
X1714Y25328D02*
X1700Y25314D01*
X1714Y25300D01*
X1728Y25314D01*
X1714Y25328D01*
X1714Y25300D01*
X1857Y25228D02*
X1857Y25028D01*
X1857Y25200D02*
X1871Y25214D01*
X1900Y25228D01*
X1942Y25228D01*
X1971Y25214D01*
X1985Y25185D01*
X1985Y25028D01*
X2257Y25228D02*
X2257Y24985D01*
X2242Y24957D01*
X2228Y24942D01*
X2200Y24928D01*
X2157Y24928D01*
X2128Y24942D01*
X2257Y25042D02*
X2228Y25028D01*
X2171Y25028D01*
X2142Y25042D01*
X2128Y25057D01*
X2114Y25085D01*
X2114Y25171D01*
X2128Y25200D01*
X2142Y25214D01*
X2171Y25228D01*
X2228Y25228D01*
X2257Y25214D01*
X2628Y25028D02*
X2628Y25328D01*
X2814Y25028D02*
X2785Y25042D01*
X2771Y25071D01*
X2771Y25328D01*
X2971Y25028D02*
X2942Y25042D01*
X2928Y25071D01*
X2928Y25328D01*
X3214Y25228D02*
X3214Y25028D01*
X3085Y25228D02*
X3085Y25071D01*
X3100Y25042D01*
X3128Y25028D01*
X3171Y25028D01*
X3200Y25042D01*
X3214Y25057D01*
X3357Y25028D02*
X3357Y25228D01*
X3357Y25200D02*
X3371Y25214D01*
X3400Y25228D01*
X3442Y25228D01*
X3471Y25214D01*
X3485Y25185D01*
X3485Y25028D01*
X3485Y25185D02*
X3500Y25214D01*
X3528Y25228D01*
X3571Y25228D01*
X3600Y25214D01*
X3614Y25185D01*
X3614Y25028D01*
X3757Y25028D02*
X3757Y25228D01*
X3757Y25328D02*
X3742Y25314D01*
X3757Y25300D01*
X3771Y25314D01*
X3757Y25328D01*
X3757Y25300D01*
X3900Y25228D02*
X3900Y25028D01*
X3900Y25200D02*
X3914Y25214D01*
X3942Y25228D01*
X3985Y25228D01*
X4014Y25214D01*
X4028Y25185D01*
X4028Y25028D01*
X4300Y25028D02*
X4300Y25185D01*
X4285Y25214D01*
X4257Y25228D01*
X4200Y25228D01*
X4171Y25214D01*
X4300Y25042D02*
X4271Y25028D01*
X4200Y25028D01*
X4171Y25042D01*
X4157Y25071D01*
X4157Y25100D01*
X4171Y25128D01*
X4200Y25142D01*
X4271Y25142D01*
X4300Y25157D01*
X4400Y25228D02*
X4514Y25228D01*
X4442Y25328D02*
X4442Y25071D01*
X4457Y25042D01*
X4485Y25028D01*
X4514Y25028D01*
X4657Y25028D02*
X4628Y25042D01*
X4614Y25057D01*
X4600Y25085D01*
X4600Y25171D01*
X4614Y25200D01*
X4628Y25214D01*
X4657Y25228D01*
X4700Y25228D01*
X4728Y25214D01*
X4742Y25200D01*
X4757Y25171D01*
X4757Y25085D01*
X4742Y25057D01*
X4728Y25042D01*
X4700Y25028D01*
X4657Y25028D01*
X4885Y25028D02*
X4885Y25228D01*
X4885Y25171D02*
X4900Y25200D01*
X4914Y25214D01*
X4942Y25228D01*
X4971Y25228D01*
X328Y24848D02*
X428Y24548D01*
X528Y24848D01*
X785Y24548D02*
X614Y24548D01*
X700Y24548D02*
X700Y24848D01*
X671Y24805D01*
X642Y24777D01*
X614Y24762D01*
X914Y24577D02*
X928Y24562D01*
X914Y24548D01*
X900Y24562D01*
X914Y24577D01*
X914Y24548D01*
X1114Y24848D02*
X1142Y24848D01*
X1171Y24834D01*
X1185Y24820D01*
X1200Y24791D01*
X1214Y24734D01*
X1214Y24662D01*
X1200Y24605D01*
X1185Y24577D01*
X1171Y24562D01*
X1142Y24548D01*
X1114Y24548D01*
X1085Y24562D01*
X1071Y24577D01*
X1057Y24605D01*
X1042Y24662D01*
X1042Y24734D01*
X1057Y24791D01*
X1071Y24820D01*
X1085Y24834D01*
X1114Y24848D01*
X1342Y24662D02*
X1571Y24662D01*
X1771Y24848D02*
X1800Y24848D01*
X1828Y24834D01*
X1842Y24820D01*
X1857Y24791D01*
X1871Y24734D01*
X1871Y24662D01*
X1857Y24605D01*
X1842Y24577D01*
X1828Y24562D01*
X1800Y24548D01*
X1771Y24548D01*
X1742Y24562D01*
X1728Y24577D01*
X1714Y24605D01*
X1700Y24662D01*
X1700Y24734D01*
X1714Y24791D01*
X1728Y24820D01*
X1742Y24834D01*
X1771Y24848D01*
X2157Y24548D02*
X1985Y24548D01*
X2071Y24548D02*
X2071Y24848D01*
X2042Y24805D01*
X2014Y24777D01*
X1985Y24762D01*
X2499Y24862D02*
X2242Y24477D01*
X2585Y24820D02*
X2600Y24834D01*
X2628Y24848D01*
X2700Y24848D01*
X2728Y24834D01*
X2742Y24820D01*
X2757Y24791D01*
X2757Y24762D01*
X2742Y24720D01*
X2571Y24548D01*
X2757Y24548D01*
X2942Y24848D02*
X2971Y24848D01*
X2999Y24834D01*
X3014Y24820D01*
X3028Y24791D01*
X3042Y24734D01*
X3042Y24662D01*
X3028Y24605D01*
X3014Y24577D01*
X2999Y24562D01*
X2971Y24548D01*
X2942Y24548D01*
X2914Y24562D01*
X2899Y24577D01*
X2885Y24605D01*
X2871Y24662D01*
X2871Y24734D01*
X2885Y24791D01*
X2899Y24820D01*
X2914Y24834D01*
X2942Y24848D01*
X3328Y24548D02*
X3157Y24548D01*
X3242Y24548D02*
X3242Y24848D01*
X3214Y24805D01*
X3185Y24777D01*
X3157Y24762D01*
X3585Y24748D02*
X3585Y24548D01*
X3514Y24862D02*
X3442Y24648D01*
X3628Y24648D01*
X371Y24182D02*
X600Y24182D01*
X728Y24154D02*
X871Y24154D01*
X700Y24068D02*
X800Y24368D01*
X900Y24068D01*
X1000Y24097D02*
X1014Y24082D01*
X1000Y24068D01*
X985Y24082D01*
X1000Y24097D01*
X1000Y24068D01*
X1357Y24082D02*
X1400Y24068D01*
X1471Y24068D01*
X1500Y24082D01*
X1514Y24097D01*
X1528Y24125D01*
X1528Y24154D01*
X1514Y24182D01*
X1500Y24197D01*
X1471Y24211D01*
X1414Y24225D01*
X1385Y24240D01*
X1371Y24254D01*
X1357Y24282D01*
X1357Y24311D01*
X1371Y24340D01*
X1385Y24354D01*
X1414Y24368D01*
X1485Y24368D01*
X1528Y24354D01*
X1785Y24068D02*
X1785Y24225D01*
X1771Y24254D01*
X1742Y24268D01*
X1685Y24268D01*
X1657Y24254D01*
X1785Y24082D02*
X1757Y24068D01*
X1685Y24068D01*
X1657Y24082D01*
X1642Y24111D01*
X1642Y24140D01*
X1657Y24168D01*
X1685Y24182D01*
X1757Y24182D01*
X1785Y24197D01*
X1928Y24068D02*
X1928Y24268D01*
X1928Y24240D02*
X1942Y24254D01*
X1971Y24268D01*
X2014Y24268D01*
X2042Y24254D01*
X2057Y24225D01*
X2057Y24068D01*
X2057Y24225D02*
X2071Y24254D01*
X2100Y24268D01*
X2142Y24268D01*
X2171Y24254D01*
X2185Y24225D01*
X2185Y24068D01*
X2457Y24068D02*
X2457Y24225D01*
X2442Y24254D01*
X2414Y24268D01*
X2357Y24268D01*
X2328Y24254D01*
X2457Y24082D02*
X2428Y24068D01*
X2357Y24068D01*
X2328Y24082D01*
X2314Y24111D01*
X2314Y24140D01*
X2328Y24168D01*
X2357Y24182D01*
X2428Y24182D01*
X2457Y24197D01*
X2600Y24268D02*
X2600Y24068D01*
X2600Y24240D02*
X2614Y24254D01*
X2642Y24268D01*
X2685Y24268D01*
X2714Y24254D01*
X2728Y24225D01*
X2728Y24068D01*
X2871Y24068D02*
X2871Y24268D01*
X2871Y24368D02*
X2857Y24354D01*
X2871Y24340D01*
X2885Y24354D01*
X2871Y24368D01*
X2871Y24340D01*
X3128Y24082D02*
X3100Y24068D01*
X3042Y24068D01*
X3014Y24082D01*
X3000Y24111D01*
X3000Y24225D01*
X3014Y24254D01*
X3042Y24268D01*
X3100Y24268D01*
X3128Y24254D01*
X3142Y24225D01*
X3142Y24197D01*
X3000Y24168D01*
X3400Y24268D02*
X3400Y24025D01*
X3385Y23997D01*
X3371Y23982D01*
X3342Y23968D01*
X3300Y23968D01*
X3271Y23982D01*
X3400Y24082D02*
X3371Y24068D01*
X3314Y24068D01*
X3285Y24082D01*
X3271Y24097D01*
X3257Y24125D01*
X3257Y24211D01*
X3271Y24240D01*
X3285Y24254D01*
X3314Y24268D01*
X3371Y24268D01*
X3400Y24254D01*
X3585Y24068D02*
X3557Y24082D01*
X3542Y24097D01*
X3528Y24125D01*
X3528Y24211D01*
X3542Y24240D01*
X3557Y24254D01*
X3585Y24268D01*
X3628Y24268D01*
X3657Y24254D01*
X3671Y24240D01*
X3685Y24211D01*
X3685Y24125D01*
X3671Y24097D01*
X3657Y24082D01*
X3628Y24068D01*
X3585Y24068D01*
X371Y23702D02*
X600Y23702D01*
X742Y23588D02*
X742Y23888D01*
X842Y23674D01*
X942Y23888D01*
X942Y23588D01*
X1085Y23617D02*
X1100Y23602D01*
X1085Y23588D01*
X1071Y23602D01*
X1085Y23617D01*
X1085Y23588D01*
X1457Y23588D02*
X1457Y23888D01*
X1628Y23588D02*
X1500Y23760D01*
X1628Y23888D02*
X1457Y23717D01*
X1885Y23788D02*
X1885Y23588D01*
X1757Y23788D02*
X1757Y23631D01*
X1771Y23602D01*
X1800Y23588D01*
X1842Y23588D01*
X1871Y23602D01*
X1885Y23617D01*
X2028Y23588D02*
X2028Y23788D01*
X2028Y23760D02*
X2042Y23774D01*
X2071Y23788D01*
X2114Y23788D01*
X2142Y23774D01*
X2157Y23745D01*
X2157Y23588D01*
X2157Y23745D02*
X2171Y23774D01*
X2200Y23788D01*
X2242Y23788D01*
X2271Y23774D01*
X2285Y23745D01*
X2285Y23588D01*
X2557Y23588D02*
X2557Y23745D01*
X2542Y23774D01*
X2514Y23788D01*
X2457Y23788D01*
X2428Y23774D01*
X2557Y23602D02*
X2528Y23588D01*
X2457Y23588D01*
X2428Y23602D01*
X2414Y23631D01*
X2414Y23660D01*
X2428Y23688D01*
X2457Y23702D01*
X2528Y23702D01*
X2557Y23717D01*
X2700Y23588D02*
X2700Y23788D01*
X2700Y23731D02*
X2714Y23760D01*
X2728Y23774D01*
X2757Y23788D01*
X2785Y23788D01*
X464Y29528D02*
X292Y29528D01*
X378Y29528D02*
X378Y29828D01*
X350Y29785D01*
X321Y29757D01*
X292Y29742D01*
X578Y29800D02*
X592Y29814D01*
X621Y29828D01*
X692Y29828D01*
X721Y29814D01*
X735Y29800D01*
X750Y29771D01*
X750Y29742D01*
X735Y29700D01*
X564Y29528D01*
X750Y29528D01*
X835Y29828D02*
X935Y29528D01*
X1035Y29828D01*
X1350Y29800D02*
X1364Y29814D01*
X1392Y29828D01*
X1464Y29828D01*
X1492Y29814D01*
X1507Y29800D01*
X1521Y29771D01*
X1521Y29742D01*
X1507Y29700D01*
X1335Y29528D01*
X1521Y29528D01*
X1650Y29557D02*
X1664Y29542D01*
X1650Y29528D01*
X1635Y29542D01*
X1650Y29557D01*
X1650Y29528D01*
X1935Y29828D02*
X1792Y29828D01*
X1778Y29685D01*
X1792Y29700D01*
X1821Y29714D01*
X1892Y29714D01*
X1921Y29700D01*
X1935Y29685D01*
X1949Y29657D01*
X1949Y29585D01*
X1935Y29557D01*
X1921Y29542D01*
X1892Y29528D01*
X1821Y29528D01*
X1792Y29542D01*
X1778Y29557D01*
X2064Y29614D02*
X2207Y29614D01*
X2035Y29528D02*
X2135Y29828D01*
X2235Y29528D01*
G54D11*
X4093Y31284D02*
X4093Y31186D01*
X4093Y31186D02*
X3306Y31186D01*
X3306Y31186D02*
X3306Y31284D01*
X5471Y30084D02*
X1928Y30084D01*
X1928Y30084D02*
X1928Y31501D01*
X5471Y31501D02*
X1928Y31501D01*
X5471Y30084D02*
X5471Y31501D01*
X12400Y28020D02*
X12400Y28520D01*
X13400Y28020D02*
X13400Y28520D01*
X14400Y28020D02*
X14400Y28520D01*
X15400Y28020D02*
X15400Y28520D01*
X16400Y28020D02*
X16400Y28520D01*
X17400Y28020D02*
X17400Y28520D01*
X18000Y28150D02*
X18000Y31500D01*
X18000Y28150D02*
X11800Y28150D01*
X11800Y28150D02*
X11800Y31500D01*
X18000Y31500D02*
X11800Y31500D01*
X11570Y28820D02*
X7630Y28820D01*
X7630Y28820D02*
X7630Y31490D01*
X11570Y31490D02*
X7630Y31490D01*
X11570Y28820D02*
X11570Y31490D01*
X7405Y29100D02*
X7405Y31500D01*
X7405Y31500D02*
X5595Y31500D01*
X5595Y29100D02*
X5595Y31500D01*
X7405Y29100D02*
X5595Y29100D01*
G54D12*
X6513Y22330D02*
G75*
G03X6513Y22330I-111J0D01*
G74*
G01*
X7902Y20580D02*
X7902Y22580D01*
X7902Y22580D02*
X6102Y22580D01*
X6102Y22580D02*
X6102Y20580D01*
X6102Y20580D02*
X7902Y20580D01*
X12711Y23390D02*
G75*
G03X12711Y23390I-111J0D01*
G74*
G01*
X11100Y25140D02*
X11100Y23140D01*
X11100Y23140D02*
X12900Y23140D01*
X12900Y23140D02*
X12900Y25140D01*
X12900Y25140D02*
X11100Y25140D01*
G54D13*
X10424Y5213D02*
G75*
G03X10424Y5213I-62J0D01*
G74*
G01*
X10700Y4250D02*
X10300Y4250D01*
X10700Y5275D02*
X10300Y5275D01*
X10300Y4250D02*
X10300Y5275D01*
X10700Y5275D02*
X10700Y4250D01*
X7700Y4287D02*
G75*
G03X7700Y4287I-62J0D01*
G74*
G01*
X7300Y5250D02*
X7700Y5250D01*
X7300Y4225D02*
X7700Y4225D01*
X7700Y5250D02*
X7700Y4225D01*
X7300Y4225D02*
X7300Y5250D01*
G54D11*
X10425Y22964D02*
X13574Y22964D01*
X13574Y22964D02*
X13574Y19815D01*
X13574Y19815D02*
X10425Y19815D01*
X10425Y19815D02*
X10425Y22964D01*
X8576Y22821D02*
X5427Y22821D01*
X5427Y22821D02*
X5427Y25970D01*
X5427Y25970D02*
X8576Y25970D01*
X8576Y25970D02*
X8576Y22821D01*
G54D12*
X4502Y22520D02*
X4502Y22600D01*
X5252Y23120D02*
X5252Y21320D01*
X5252Y21320D02*
X5002Y21320D01*
X3752Y21960D02*
X5252Y21960D01*
X3752Y21830D02*
X5252Y21830D01*
X4002Y23120D02*
X3752Y23120D01*
X3752Y23120D02*
X3752Y21320D01*
X3752Y21320D02*
X4002Y21320D01*
X5002Y23120D02*
X5252Y23120D01*
X4502Y22270D02*
X4689Y22520D01*
X4689Y22520D02*
X4502Y22520D01*
X4502Y22520D02*
X4315Y22520D01*
X4315Y22520D02*
X4502Y22270D01*
X4502Y22270D02*
X4627Y22270D01*
X4627Y22270D02*
X4689Y22332D01*
X4502Y22270D02*
X4377Y22270D01*
X4377Y22270D02*
X4315Y22208D01*
X4502Y22270D02*
X4502Y21833D01*
X14402Y23072D02*
X14402Y22992D01*
X13652Y22472D02*
X13652Y24272D01*
X13652Y24272D02*
X13902Y24272D01*
X15152Y23632D02*
X13652Y23632D01*
X15152Y23762D02*
X13652Y23762D01*
X14902Y22472D02*
X15152Y22472D01*
X15152Y22472D02*
X15152Y24272D01*
X15152Y24272D02*
X14902Y24272D01*
X13902Y22472D02*
X13652Y22472D01*
X14402Y23322D02*
X14215Y23072D01*
X14215Y23072D02*
X14402Y23072D01*
X14402Y23072D02*
X14589Y23072D01*
X14589Y23072D02*
X14402Y23322D01*
X14402Y23322D02*
X14277Y23322D01*
X14277Y23322D02*
X14215Y23260D01*
X14402Y23322D02*
X14527Y23322D01*
X14527Y23322D02*
X14589Y23384D01*
X14402Y23322D02*
X14402Y23759D01*
G54D11*
X2906Y21915D02*
X2808Y21915D01*
X2808Y21915D02*
X2808Y22013D01*
X3497Y23292D02*
X3595Y23292D01*
X3595Y23292D02*
X3595Y23194D01*
X3595Y22013D02*
X3595Y21915D01*
X3595Y21915D02*
X3497Y21915D01*
X2906Y23292D02*
X2808Y23292D01*
X2808Y23292D02*
X2808Y23194D01*
X5297Y20860D02*
X5395Y20860D01*
X5395Y20860D02*
X5395Y20762D01*
X4706Y19483D02*
X4608Y19483D01*
X4608Y19483D02*
X4608Y19581D01*
X4608Y20762D02*
X4608Y20860D01*
X4608Y20860D02*
X4706Y20860D01*
X5297Y19483D02*
X5395Y19483D01*
X5395Y19483D02*
X5395Y19581D01*
X10088Y22054D02*
X10088Y21956D01*
X10088Y21956D02*
X9990Y21956D01*
X8711Y22645D02*
X8711Y22743D01*
X8711Y22743D02*
X8809Y22743D01*
X9990Y22743D02*
X10088Y22743D01*
X10088Y22743D02*
X10088Y22645D01*
X8711Y22054D02*
X8711Y21956D01*
X8711Y21956D02*
X8809Y21956D01*
X10088Y20154D02*
X10088Y20056D01*
X10088Y20056D02*
X9990Y20056D01*
X8711Y20745D02*
X8711Y20843D01*
X8711Y20843D02*
X8809Y20843D01*
X9990Y20843D02*
X10088Y20843D01*
X10088Y20843D02*
X10088Y20745D01*
X8711Y20154D02*
X8711Y20056D01*
X8711Y20056D02*
X8809Y20056D01*
X4390Y20260D02*
X4390Y20162D01*
X4390Y20162D02*
X4292Y20162D01*
X3013Y20851D02*
X3013Y20949D01*
X3013Y20949D02*
X3111Y20949D01*
X4292Y20949D02*
X4390Y20949D01*
X4390Y20949D02*
X4390Y20851D01*
X3013Y20260D02*
X3013Y20162D01*
X3013Y20162D02*
X3111Y20162D01*
X15997Y23676D02*
X16095Y23676D01*
X16095Y23676D02*
X16095Y23578D01*
X15406Y22299D02*
X15308Y22299D01*
X15308Y22299D02*
X15308Y22397D01*
X15308Y23578D02*
X15308Y23676D01*
X15308Y23676D02*
X15406Y23676D01*
X15997Y22299D02*
X16095Y22299D01*
X16095Y22299D02*
X16095Y22397D01*
X10290Y23076D02*
X10290Y22978D01*
X10290Y22978D02*
X10192Y22978D01*
X8913Y23667D02*
X8913Y23765D01*
X8913Y23765D02*
X9011Y23765D01*
X10192Y23765D02*
X10290Y23765D01*
X10290Y23765D02*
X10290Y23667D01*
X8913Y23076D02*
X8913Y22978D01*
X8913Y22978D02*
X9011Y22978D01*
X14513Y25331D02*
X14513Y25429D01*
X14513Y25429D02*
X14611Y25429D01*
X15890Y24740D02*
X15890Y24642D01*
X15890Y24642D02*
X15792Y24642D01*
X14611Y24642D02*
X14513Y24642D01*
X14513Y24642D02*
X14513Y24740D01*
X15890Y25331D02*
X15890Y25429D01*
X15890Y25429D02*
X15792Y25429D01*
X8913Y25459D02*
X8913Y25557D01*
X8913Y25557D02*
X9011Y25557D01*
X10290Y24868D02*
X10290Y24770D01*
X10290Y24770D02*
X10192Y24770D01*
X9011Y24770D02*
X8913Y24770D01*
X8913Y24770D02*
X8913Y24868D01*
X10290Y25459D02*
X10290Y25557D01*
X10290Y25557D02*
X10192Y25557D01*
X6295Y28888D02*
X6393Y28888D01*
X6393Y28888D02*
X6393Y28790D01*
X5704Y27511D02*
X5606Y27511D01*
X5606Y27511D02*
X5606Y27609D01*
X5606Y28790D02*
X5606Y28888D01*
X5606Y28888D02*
X5704Y28888D01*
X6295Y27511D02*
X6393Y27511D01*
X6393Y27511D02*
X6393Y27609D01*
X8711Y21695D02*
X8711Y21793D01*
X8711Y21793D02*
X8809Y21793D01*
X10088Y21104D02*
X10088Y21006D01*
X10088Y21006D02*
X9990Y21006D01*
X8809Y21006D02*
X8711Y21006D01*
X8711Y21006D02*
X8711Y21104D01*
X10088Y21695D02*
X10088Y21793D01*
X10088Y21793D02*
X9990Y21793D01*
X10513Y25971D02*
X10513Y26069D01*
X10513Y26069D02*
X10611Y26069D01*
X11890Y25380D02*
X11890Y25282D01*
X11890Y25282D02*
X11792Y25282D01*
X10611Y25282D02*
X10513Y25282D01*
X10513Y25282D02*
X10513Y25380D01*
X11890Y25971D02*
X11890Y26069D01*
X11890Y26069D02*
X11792Y26069D01*
X10290Y23972D02*
X10290Y23874D01*
X10290Y23874D02*
X10192Y23874D01*
X8913Y24563D02*
X8913Y24661D01*
X8913Y24661D02*
X9011Y24661D01*
X10192Y24661D02*
X10290Y24661D01*
X10290Y24661D02*
X10290Y24563D01*
X8913Y23972D02*
X8913Y23874D01*
X8913Y23874D02*
X9011Y23874D01*
X8490Y19748D02*
X8490Y19650D01*
X8490Y19650D02*
X8392Y19650D01*
X7113Y20339D02*
X7113Y20437D01*
X7113Y20437D02*
X7211Y20437D01*
X8392Y20437D02*
X8490Y20437D01*
X8490Y20437D02*
X8490Y20339D01*
X7113Y19748D02*
X7113Y19650D01*
X7113Y19650D02*
X7211Y19650D01*
X10261Y27445D02*
X10261Y27543D01*
X10261Y27543D02*
X10359Y27543D01*
X11638Y26854D02*
X11638Y26756D01*
X11638Y26756D02*
X11540Y26756D01*
X10359Y26756D02*
X10261Y26756D01*
X10261Y26756D02*
X10261Y26854D01*
X11638Y27445D02*
X11638Y27543D01*
X11638Y27543D02*
X11540Y27543D01*
X13706Y24722D02*
X13608Y24722D01*
X13608Y24722D02*
X13608Y24820D01*
X14297Y26099D02*
X14395Y26099D01*
X14395Y26099D02*
X14395Y26001D01*
X14395Y24820D02*
X14395Y24722D01*
X14395Y24722D02*
X14297Y24722D01*
X13706Y26099D02*
X13608Y26099D01*
X13608Y26099D02*
X13608Y26001D01*
G54D12*
X3176Y30869D02*
X3214Y30869D01*
X3233Y30859D01*
X3252Y30840D01*
X3261Y30802D01*
X3261Y30735D01*
X3252Y30697D01*
X3233Y30678D01*
X3214Y30669D01*
X3176Y30669D01*
X3157Y30678D01*
X3138Y30697D01*
X3128Y30735D01*
X3128Y30802D01*
X3138Y30840D01*
X3157Y30859D01*
X3176Y30869D01*
X3414Y30773D02*
X3347Y30773D01*
X3347Y30669D02*
X3347Y30869D01*
X3442Y30869D01*
X3585Y30773D02*
X3519Y30773D01*
X3519Y30669D02*
X3519Y30869D01*
X3614Y30869D01*
X3690Y30745D02*
X3842Y30745D01*
X3976Y30869D02*
X4014Y30869D01*
X4033Y30859D01*
X4052Y30840D01*
X4061Y30802D01*
X4061Y30735D01*
X4052Y30697D01*
X4033Y30678D01*
X4014Y30669D01*
X3976Y30669D01*
X3957Y30678D01*
X3938Y30697D01*
X3928Y30735D01*
X3928Y30802D01*
X3938Y30840D01*
X3957Y30859D01*
X3976Y30869D01*
X4147Y30669D02*
X4147Y30869D01*
X4261Y30669D01*
X4261Y30869D01*
X14752Y30919D02*
X14752Y31119D01*
X14828Y31119D01*
X14847Y31109D01*
X14857Y31100D01*
X14866Y31080D01*
X14866Y31052D01*
X14857Y31033D01*
X14847Y31023D01*
X14828Y31014D01*
X14752Y31014D01*
X15057Y30919D02*
X14942Y30919D01*
X15000Y30919D02*
X15000Y31119D01*
X14980Y31090D01*
X14961Y31071D01*
X14942Y31061D01*
X9480Y30919D02*
X9414Y31014D01*
X9366Y30919D02*
X9366Y31119D01*
X9442Y31119D01*
X9461Y31109D01*
X9471Y31100D01*
X9480Y31080D01*
X9480Y31052D01*
X9471Y31033D01*
X9461Y31023D01*
X9442Y31014D01*
X9366Y31014D01*
X9538Y31119D02*
X9604Y30919D01*
X9671Y31119D01*
X9842Y30919D02*
X9728Y30919D01*
X9785Y30919D02*
X9785Y31119D01*
X9766Y31090D01*
X9747Y31071D01*
X9728Y31061D01*
X6352Y30919D02*
X6352Y31119D01*
X6400Y31119D01*
X6428Y31109D01*
X6447Y31090D01*
X6457Y31071D01*
X6466Y31033D01*
X6466Y31004D01*
X6457Y30966D01*
X6447Y30947D01*
X6428Y30928D01*
X6400Y30919D01*
X6352Y30919D01*
X6657Y30919D02*
X6542Y30919D01*
X6600Y30919D02*
X6600Y31119D01*
X6580Y31090D01*
X6561Y31071D01*
X6542Y31061D01*
X5923Y30665D02*
X6076Y30665D01*
X6923Y30665D02*
X7076Y30665D01*
X7000Y30589D02*
X7000Y30741D01*
X2989Y10872D02*
X2989Y11025D01*
X2989Y11974D02*
X2989Y12127D01*
X3065Y12051D02*
X2912Y12051D01*
X6147Y20369D02*
X6147Y20207D01*
X6157Y20188D01*
X6166Y20178D01*
X6185Y20169D01*
X6223Y20169D01*
X6242Y20178D01*
X6252Y20188D01*
X6261Y20207D01*
X6261Y20369D01*
X6347Y20350D02*
X6357Y20359D01*
X6376Y20369D01*
X6423Y20369D01*
X6442Y20359D01*
X6452Y20350D01*
X6461Y20330D01*
X6461Y20311D01*
X6452Y20283D01*
X6338Y20169D01*
X6461Y20169D01*
X12547Y25519D02*
X12547Y25357D01*
X12557Y25338D01*
X12566Y25328D01*
X12585Y25319D01*
X12623Y25319D01*
X12642Y25328D01*
X12652Y25338D01*
X12661Y25357D01*
X12661Y25519D01*
X12861Y25319D02*
X12747Y25319D01*
X12804Y25319D02*
X12804Y25519D01*
X12785Y25490D01*
X12766Y25471D01*
X12747Y25461D01*
X10480Y3650D02*
X10461Y3659D01*
X10442Y3678D01*
X10414Y3707D01*
X10395Y3716D01*
X10376Y3716D01*
X10385Y3669D02*
X10366Y3678D01*
X10347Y3697D01*
X10338Y3735D01*
X10338Y3802D01*
X10347Y3840D01*
X10366Y3859D01*
X10385Y3869D01*
X10423Y3869D01*
X10442Y3859D01*
X10461Y3840D01*
X10471Y3802D01*
X10471Y3735D01*
X10461Y3697D01*
X10442Y3678D01*
X10423Y3669D01*
X10385Y3669D01*
X10661Y3669D02*
X10547Y3669D01*
X10604Y3669D02*
X10604Y3869D01*
X10585Y3840D01*
X10566Y3821D01*
X10547Y3811D01*
X7480Y3650D02*
X7461Y3659D01*
X7442Y3678D01*
X7414Y3707D01*
X7395Y3716D01*
X7376Y3716D01*
X7385Y3669D02*
X7366Y3678D01*
X7347Y3697D01*
X7338Y3735D01*
X7338Y3802D01*
X7347Y3840D01*
X7366Y3859D01*
X7385Y3869D01*
X7423Y3869D01*
X7442Y3859D01*
X7461Y3840D01*
X7471Y3802D01*
X7471Y3735D01*
X7461Y3697D01*
X7442Y3678D01*
X7423Y3669D01*
X7385Y3669D01*
X7547Y3850D02*
X7557Y3859D01*
X7576Y3869D01*
X7623Y3869D01*
X7642Y3859D01*
X7652Y3850D01*
X7661Y3830D01*
X7661Y3811D01*
X7652Y3783D01*
X7538Y3669D01*
X7661Y3669D01*
X11966Y21169D02*
X11871Y21169D01*
X11871Y21369D01*
X12138Y21169D02*
X12023Y21169D01*
X12080Y21169D02*
X12080Y21369D01*
X12061Y21340D01*
X12042Y21321D01*
X12023Y21311D01*
X6966Y24319D02*
X6871Y24319D01*
X6871Y24519D01*
X7023Y24500D02*
X7033Y24509D01*
X7052Y24519D01*
X7100Y24519D01*
X7119Y24509D01*
X7128Y24500D01*
X7138Y24480D01*
X7138Y24461D01*
X7128Y24433D01*
X7014Y24319D01*
X7138Y24319D01*
X4352Y23469D02*
X4352Y23669D01*
X4400Y23669D01*
X4428Y23659D01*
X4447Y23640D01*
X4457Y23621D01*
X4466Y23583D01*
X4466Y23554D01*
X4457Y23516D01*
X4447Y23497D01*
X4428Y23478D01*
X4400Y23469D01*
X4352Y23469D01*
X4638Y23669D02*
X4600Y23669D01*
X4580Y23659D01*
X4571Y23650D01*
X4552Y23621D01*
X4542Y23583D01*
X4542Y23507D01*
X4552Y23488D01*
X4561Y23478D01*
X4580Y23469D01*
X4619Y23469D01*
X4638Y23478D01*
X4647Y23488D01*
X4657Y23507D01*
X4657Y23554D01*
X4647Y23573D01*
X4638Y23583D01*
X4619Y23592D01*
X4580Y23592D01*
X4561Y23583D01*
X4552Y23573D01*
X4542Y23554D01*
X14252Y21919D02*
X14252Y22119D01*
X14300Y22119D01*
X14328Y22109D01*
X14347Y22090D01*
X14357Y22071D01*
X14366Y22033D01*
X14366Y22004D01*
X14357Y21966D01*
X14347Y21947D01*
X14328Y21928D01*
X14300Y21919D01*
X14252Y21919D01*
X14442Y22100D02*
X14452Y22109D01*
X14471Y22119D01*
X14519Y22119D01*
X14538Y22109D01*
X14547Y22100D01*
X14557Y22080D01*
X14557Y22061D01*
X14547Y22033D01*
X14433Y21919D01*
X14557Y21919D01*
X5451Y16389D02*
X5583Y16465D01*
X6405Y16940D02*
X6537Y17017D01*
X6509Y16913D02*
X6433Y17045D01*
X6401Y6050D02*
X6533Y5974D01*
X5446Y6601D02*
X5578Y6525D01*
X5474Y6497D02*
X5550Y6629D01*
X11486Y5957D02*
X11618Y6033D01*
X12436Y6507D02*
X12568Y6583D01*
X12540Y6479D02*
X12464Y6611D01*
X15054Y10873D02*
X15054Y11026D01*
X15054Y11973D02*
X15054Y12126D01*
X15130Y12050D02*
X14978Y12050D01*
X12481Y16583D02*
X12613Y16507D01*
X11481Y17083D02*
X11613Y17007D01*
X11509Y16979D02*
X11585Y17111D01*
X2616Y23188D02*
X2607Y23178D01*
X2578Y23169D01*
X2559Y23169D01*
X2530Y23178D01*
X2511Y23197D01*
X2502Y23216D01*
X2492Y23254D01*
X2492Y23283D01*
X2502Y23321D01*
X2511Y23340D01*
X2530Y23359D01*
X2559Y23369D01*
X2578Y23369D01*
X2607Y23359D01*
X2616Y23350D01*
X2683Y23369D02*
X2816Y23369D01*
X2730Y23169D01*
X4416Y19438D02*
X4407Y19428D01*
X4378Y19419D01*
X4359Y19419D01*
X4330Y19428D01*
X4311Y19447D01*
X4302Y19466D01*
X4292Y19504D01*
X4292Y19533D01*
X4302Y19571D01*
X4311Y19590D01*
X4330Y19609D01*
X4359Y19619D01*
X4378Y19619D01*
X4407Y19609D01*
X4416Y19600D01*
X4530Y19533D02*
X4511Y19542D01*
X4502Y19552D01*
X4492Y19571D01*
X4492Y19580D01*
X4502Y19600D01*
X4511Y19609D01*
X4530Y19619D01*
X4569Y19619D01*
X4588Y19609D01*
X4597Y19600D01*
X4607Y19580D01*
X4607Y19571D01*
X4597Y19552D01*
X4588Y19542D01*
X4569Y19533D01*
X4530Y19533D01*
X4511Y19523D01*
X4502Y19514D01*
X4492Y19495D01*
X4492Y19457D01*
X4502Y19438D01*
X4511Y19428D01*
X4530Y19419D01*
X4569Y19419D01*
X4588Y19428D01*
X4597Y19438D01*
X4607Y19457D01*
X4607Y19495D01*
X4597Y19514D01*
X4588Y19523D01*
X4569Y19533D01*
X8371Y22588D02*
X8361Y22578D01*
X8333Y22569D01*
X8314Y22569D01*
X8285Y22578D01*
X8266Y22597D01*
X8257Y22616D01*
X8247Y22654D01*
X8247Y22683D01*
X8257Y22721D01*
X8266Y22740D01*
X8285Y22759D01*
X8314Y22769D01*
X8333Y22769D01*
X8361Y22759D01*
X8371Y22750D01*
X8561Y22569D02*
X8447Y22569D01*
X8504Y22569D02*
X8504Y22769D01*
X8485Y22740D01*
X8466Y22721D01*
X8447Y22711D01*
X8685Y22769D02*
X8704Y22769D01*
X8723Y22759D01*
X8733Y22750D01*
X8742Y22730D01*
X8752Y22692D01*
X8752Y22645D01*
X8742Y22607D01*
X8733Y22588D01*
X8723Y22578D01*
X8704Y22569D01*
X8685Y22569D01*
X8666Y22578D01*
X8657Y22588D01*
X8647Y22607D01*
X8638Y22645D01*
X8638Y22692D01*
X8647Y22730D01*
X8657Y22750D01*
X8666Y22759D01*
X8685Y22769D01*
X8516Y20738D02*
X8507Y20728D01*
X8478Y20719D01*
X8459Y20719D01*
X8430Y20728D01*
X8411Y20747D01*
X8402Y20766D01*
X8392Y20804D01*
X8392Y20833D01*
X8402Y20871D01*
X8411Y20890D01*
X8430Y20909D01*
X8459Y20919D01*
X8478Y20919D01*
X8507Y20909D01*
X8516Y20900D01*
X8611Y20719D02*
X8650Y20719D01*
X8669Y20728D01*
X8678Y20738D01*
X8697Y20766D01*
X8707Y20804D01*
X8707Y20880D01*
X8697Y20900D01*
X8688Y20909D01*
X8669Y20919D01*
X8630Y20919D01*
X8611Y20909D01*
X8602Y20900D01*
X8592Y20880D01*
X8592Y20833D01*
X8602Y20814D01*
X8611Y20804D01*
X8630Y20795D01*
X8669Y20795D01*
X8688Y20804D01*
X8697Y20814D01*
X8707Y20833D01*
X2816Y20838D02*
X2807Y20828D01*
X2778Y20819D01*
X2759Y20819D01*
X2730Y20828D01*
X2711Y20847D01*
X2702Y20866D01*
X2692Y20904D01*
X2692Y20933D01*
X2702Y20971D01*
X2711Y20990D01*
X2730Y21009D01*
X2759Y21019D01*
X2778Y21019D01*
X2807Y21009D01*
X2816Y21000D01*
X2988Y21019D02*
X2950Y21019D01*
X2930Y21009D01*
X2921Y21000D01*
X2902Y20971D01*
X2892Y20933D01*
X2892Y20857D01*
X2902Y20838D01*
X2911Y20828D01*
X2930Y20819D01*
X2969Y20819D01*
X2988Y20828D01*
X2997Y20838D01*
X3007Y20857D01*
X3007Y20904D01*
X2997Y20923D01*
X2988Y20933D01*
X2969Y20942D01*
X2930Y20942D01*
X2911Y20933D01*
X2902Y20923D01*
X2892Y20904D01*
X16216Y23538D02*
X16207Y23528D01*
X16178Y23519D01*
X16159Y23519D01*
X16130Y23528D01*
X16111Y23547D01*
X16102Y23566D01*
X16092Y23604D01*
X16092Y23633D01*
X16102Y23671D01*
X16111Y23690D01*
X16130Y23709D01*
X16159Y23719D01*
X16178Y23719D01*
X16207Y23709D01*
X16216Y23700D01*
X16292Y23700D02*
X16302Y23709D01*
X16321Y23719D01*
X16369Y23719D01*
X16388Y23709D01*
X16397Y23700D01*
X16407Y23680D01*
X16407Y23661D01*
X16397Y23633D01*
X16283Y23519D01*
X16407Y23519D01*
X8716Y23638D02*
X8707Y23628D01*
X8678Y23619D01*
X8659Y23619D01*
X8630Y23628D01*
X8611Y23647D01*
X8602Y23666D01*
X8592Y23704D01*
X8592Y23733D01*
X8602Y23771D01*
X8611Y23790D01*
X8630Y23809D01*
X8659Y23819D01*
X8678Y23819D01*
X8707Y23809D01*
X8716Y23800D01*
X8897Y23819D02*
X8802Y23819D01*
X8792Y23723D01*
X8802Y23733D01*
X8821Y23742D01*
X8869Y23742D01*
X8888Y23733D01*
X8897Y23723D01*
X8907Y23704D01*
X8907Y23657D01*
X8897Y23638D01*
X8888Y23628D01*
X8869Y23619D01*
X8821Y23619D01*
X8802Y23628D01*
X8792Y23638D01*
X16016Y25288D02*
X16007Y25278D01*
X15978Y25269D01*
X15959Y25269D01*
X15930Y25278D01*
X15911Y25297D01*
X15902Y25316D01*
X15892Y25354D01*
X15892Y25383D01*
X15902Y25421D01*
X15911Y25440D01*
X15930Y25459D01*
X15959Y25469D01*
X15978Y25469D01*
X16007Y25459D01*
X16016Y25450D01*
X16207Y25269D02*
X16092Y25269D01*
X16150Y25269D02*
X16150Y25469D01*
X16130Y25440D01*
X16111Y25421D01*
X16092Y25411D01*
X8716Y25438D02*
X8707Y25428D01*
X8678Y25419D01*
X8659Y25419D01*
X8630Y25428D01*
X8611Y25447D01*
X8602Y25466D01*
X8592Y25504D01*
X8592Y25533D01*
X8602Y25571D01*
X8611Y25590D01*
X8630Y25609D01*
X8659Y25619D01*
X8678Y25619D01*
X8707Y25609D01*
X8716Y25600D01*
X8888Y25552D02*
X8888Y25419D01*
X8840Y25628D02*
X8792Y25485D01*
X8916Y25485D01*
X5416Y28769D02*
X5350Y28864D01*
X5302Y28769D02*
X5302Y28969D01*
X5378Y28969D01*
X5397Y28959D01*
X5407Y28950D01*
X5416Y28930D01*
X5416Y28902D01*
X5407Y28883D01*
X5397Y28873D01*
X5378Y28864D01*
X5302Y28864D01*
X5607Y28769D02*
X5492Y28769D01*
X5550Y28769D02*
X5550Y28969D01*
X5530Y28940D01*
X5511Y28921D01*
X5492Y28911D01*
X8516Y21669D02*
X8450Y21764D01*
X8402Y21669D02*
X8402Y21869D01*
X8478Y21869D01*
X8497Y21859D01*
X8507Y21850D01*
X8516Y21830D01*
X8516Y21802D01*
X8507Y21783D01*
X8497Y21773D01*
X8478Y21764D01*
X8402Y21764D01*
X8688Y21869D02*
X8650Y21869D01*
X8630Y21859D01*
X8621Y21850D01*
X8602Y21821D01*
X8592Y21783D01*
X8592Y21707D01*
X8602Y21688D01*
X8611Y21678D01*
X8630Y21669D01*
X8669Y21669D01*
X8688Y21678D01*
X8697Y21688D01*
X8707Y21707D01*
X8707Y21754D01*
X8697Y21773D01*
X8688Y21783D01*
X8669Y21792D01*
X8630Y21792D01*
X8611Y21783D01*
X8602Y21773D01*
X8592Y21754D01*
X10316Y25919D02*
X10250Y26014D01*
X10202Y25919D02*
X10202Y26119D01*
X10278Y26119D01*
X10297Y26109D01*
X10307Y26100D01*
X10316Y26080D01*
X10316Y26052D01*
X10307Y26033D01*
X10297Y26023D01*
X10278Y26014D01*
X10202Y26014D01*
X10383Y26119D02*
X10507Y26119D01*
X10440Y26042D01*
X10469Y26042D01*
X10488Y26033D01*
X10497Y26023D01*
X10507Y26004D01*
X10507Y25957D01*
X10497Y25938D01*
X10488Y25928D01*
X10469Y25919D01*
X10411Y25919D01*
X10392Y25928D01*
X10383Y25938D01*
X8716Y24519D02*
X8650Y24614D01*
X8602Y24519D02*
X8602Y24719D01*
X8678Y24719D01*
X8697Y24709D01*
X8707Y24700D01*
X8716Y24680D01*
X8716Y24652D01*
X8707Y24633D01*
X8697Y24623D01*
X8678Y24614D01*
X8602Y24614D01*
X8888Y24652D02*
X8888Y24519D01*
X8840Y24728D02*
X8792Y24585D01*
X8916Y24585D01*
X6916Y20319D02*
X6850Y20414D01*
X6802Y20319D02*
X6802Y20519D01*
X6878Y20519D01*
X6897Y20509D01*
X6907Y20500D01*
X6916Y20480D01*
X6916Y20452D01*
X6907Y20433D01*
X6897Y20423D01*
X6878Y20414D01*
X6802Y20414D01*
X7097Y20519D02*
X7002Y20519D01*
X6992Y20423D01*
X7002Y20433D01*
X7021Y20442D01*
X7069Y20442D01*
X7088Y20433D01*
X7097Y20423D01*
X7107Y20404D01*
X7107Y20357D01*
X7097Y20338D01*
X7088Y20328D01*
X7069Y20319D01*
X7021Y20319D01*
X7002Y20328D01*
X6992Y20338D01*
X10066Y27419D02*
X10000Y27514D01*
X9952Y27419D02*
X9952Y27619D01*
X10028Y27619D01*
X10047Y27609D01*
X10057Y27600D01*
X10066Y27580D01*
X10066Y27552D01*
X10057Y27533D01*
X10047Y27523D01*
X10028Y27514D01*
X9952Y27514D01*
X10142Y27600D02*
X10152Y27609D01*
X10171Y27619D01*
X10219Y27619D01*
X10238Y27609D01*
X10247Y27600D01*
X10257Y27580D01*
X10257Y27561D01*
X10247Y27533D01*
X10133Y27419D01*
X10257Y27419D01*
X13416Y25988D02*
X13407Y25978D01*
X13378Y25969D01*
X13359Y25969D01*
X13330Y25978D01*
X13311Y25997D01*
X13302Y26016D01*
X13292Y26054D01*
X13292Y26083D01*
X13302Y26121D01*
X13311Y26140D01*
X13330Y26159D01*
X13359Y26169D01*
X13378Y26169D01*
X13407Y26159D01*
X13416Y26150D01*
X13483Y26169D02*
X13607Y26169D01*
X13540Y26092D01*
X13569Y26092D01*
X13588Y26083D01*
X13597Y26073D01*
X13607Y26054D01*
X13607Y26007D01*
X13597Y25988D01*
X13588Y25978D01*
X13569Y25969D01*
X13511Y25969D01*
X13492Y25978D01*
X13483Y25988D01*
%LPC*%
G54D14*
X4684Y29710D03*
X3700Y29710D03*
X2715Y29710D03*
G54D15*
X2361Y30792D03*
X5038Y30792D03*
G54D16*
X1849Y26108D03*
X1849Y28471D03*
X3700Y27290D03*
G54D17*
X17400Y27520D03*
X16400Y27520D03*
X15400Y27520D03*
X14400Y27520D03*
X13400Y27520D03*
X12400Y27520D03*
X10585Y30120D03*
X9600Y30120D03*
X8615Y30120D03*
G54D18*
X11570Y28820D03*
X7630Y28820D03*
G54D19*
X7000Y29670D03*
X6000Y29670D03*
G54D20*
X2000Y10948D03*
X2000Y12051D03*
G54D21*
X2000Y11500D03*
G54D22*
X2000Y12228D03*
X2000Y10771D03*
G54D23*
X5900Y21708D03*
X5900Y21452D03*
X5900Y21196D03*
X5900Y20940D03*
X8102Y22472D03*
X5900Y22476D03*
X5900Y22220D03*
X5900Y21964D03*
X8104Y20684D03*
X8104Y20940D03*
X8104Y21196D03*
X8104Y21452D03*
X8104Y21708D03*
X8104Y21964D03*
X5900Y20684D03*
X8102Y22220D03*
G54D24*
X7002Y21580D03*
G54D23*
X13102Y24012D03*
X13102Y24268D03*
X13102Y24524D03*
X13102Y24780D03*
X10900Y23248D03*
X13102Y23244D03*
X13102Y23500D03*
X13102Y23756D03*
X10898Y25036D03*
X10898Y24780D03*
X10898Y24524D03*
X10898Y24268D03*
X10898Y24012D03*
X10898Y23756D03*
X13102Y25036D03*
X10900Y23500D03*
G54D24*
X12000Y24140D03*
G54D25*
X10933Y4750D03*
X10067Y4375D03*
X10067Y5125D03*
X7067Y4750D03*
X7933Y5125D03*
X7933Y4375D03*
G54D26*
X10897Y21390D03*
X13102Y21390D03*
X8104Y24396D03*
X5899Y24396D03*
G54D27*
X4502Y22968D03*
X4502Y21472D03*
X14402Y22624D03*
X14402Y24120D03*
G54D10*
G36*
X5236Y16576D02*
X4516Y17823D01*
X4808Y17991D01*
X5528Y16745D01*
X5236Y16576D01*
X5236Y16576D01*
G37*
G36*
X6191Y17128D02*
X5471Y18374D01*
X5763Y18543D01*
X6483Y17296D01*
X6191Y17128D01*
X6191Y17128D01*
G37*
G36*
X5577Y16773D02*
X4857Y18020D01*
X5422Y18346D01*
X6142Y17099D01*
X5577Y16773D01*
X5577Y16773D01*
G37*
G36*
X6086Y17703D02*
X5917Y17995D01*
X6175Y18144D01*
X6343Y17852D01*
X6086Y17703D01*
X6086Y17703D01*
G37*
G36*
X4824Y16975D02*
X4656Y17267D01*
X4913Y17416D01*
X5082Y17124D01*
X4824Y16975D01*
X4824Y16975D01*
G37*
G36*
X6483Y5703D02*
X5763Y4456D01*
X5471Y4625D01*
X6191Y5871D01*
X6483Y5703D01*
X6483Y5703D01*
G37*
G36*
X5528Y6254D02*
X4808Y5008D01*
X4516Y5176D01*
X5236Y6423D01*
X5528Y6254D01*
X5528Y6254D01*
G37*
G36*
X6142Y5900D02*
X5422Y4653D01*
X4857Y4979D01*
X5577Y6226D01*
X6142Y5900D01*
X6142Y5900D01*
G37*
G36*
X5082Y5875D02*
X4913Y5583D01*
X4656Y5732D01*
X4824Y6024D01*
X5082Y5875D01*
X5082Y5875D01*
G37*
G36*
X6343Y5147D02*
X6175Y4855D01*
X5917Y5004D01*
X6086Y5296D01*
X6343Y5147D01*
X6343Y5147D01*
G37*
G36*
X12236Y4456D02*
X11516Y5703D01*
X11808Y5871D01*
X12528Y4625D01*
X12236Y4456D01*
X12236Y4456D01*
G37*
G36*
X13191Y5008D02*
X12471Y6254D01*
X12763Y6423D01*
X13483Y5176D01*
X13191Y5008D01*
X13191Y5008D01*
G37*
G36*
X12577Y4653D02*
X11857Y5900D01*
X12422Y6226D01*
X13142Y4979D01*
X12577Y4653D01*
X12577Y4653D01*
G37*
G36*
X13086Y5583D02*
X12917Y5875D01*
X13175Y6024D01*
X13343Y5732D01*
X13086Y5583D01*
X13086Y5583D01*
G37*
G36*
X11824Y4855D02*
X11656Y5147D01*
X11913Y5296D01*
X12082Y5004D01*
X11824Y4855D01*
X11824Y4855D01*
G37*
G54D20*
X16000Y10948D03*
X16000Y12051D03*
G54D21*
X16000Y11500D03*
G54D22*
X16000Y12228D03*
X16000Y10771D03*
G54D10*
G36*
X13483Y17823D02*
X12763Y16576D01*
X12471Y16745D01*
X13191Y17991D01*
X13483Y17823D01*
X13483Y17823D01*
G37*
G36*
X12528Y18374D02*
X11808Y17128D01*
X11516Y17296D01*
X12236Y18543D01*
X12528Y18374D01*
X12528Y18374D01*
G37*
G36*
X13142Y18020D02*
X12422Y16773D01*
X11857Y17099D01*
X12577Y18346D01*
X13142Y18020D01*
X13142Y18020D01*
G37*
G36*
X12082Y17995D02*
X11913Y17703D01*
X11656Y17852D01*
X11824Y18144D01*
X12082Y17995D01*
X12082Y17995D01*
G37*
G36*
X13343Y17267D02*
X13175Y16975D01*
X12917Y17124D01*
X13086Y17416D01*
X13343Y17267D01*
X13343Y17267D01*
G37*
G54D28*
X3202Y22229D03*
X3202Y22979D03*
X5002Y20547D03*
X5002Y19797D03*
G54D29*
X9775Y22350D03*
X9025Y22350D03*
X9775Y20450D03*
X9025Y20450D03*
X4077Y20556D03*
X3327Y20556D03*
G54D28*
X15702Y23363D03*
X15702Y22613D03*
G54D29*
X9977Y23372D03*
X9227Y23372D03*
X14827Y25036D03*
X15577Y25036D03*
X9227Y25164D03*
X9977Y25164D03*
G54D28*
X6000Y28575D03*
X6000Y27825D03*
G54D29*
X9025Y21400D03*
X9775Y21400D03*
X10827Y25676D03*
X11577Y25676D03*
X9977Y24268D03*
X9227Y24268D03*
X8177Y20044D03*
X7427Y20044D03*
X10575Y27150D03*
X11325Y27150D03*
G54D28*
X14002Y25036D03*
X14002Y25786D03*
G54D30*
X9000Y11500D03*
G54D31*
X4000Y2250D03*
X14000Y2250D03*
M02*
