G04 (created by PCBNEW (2013-07-07 BZR 4022)-stable) date 1/16/2014 2:05:14 PM*
%MOIN*%
G04 Gerber Fmt 3.4, Leading zero omitted, Abs format*
%FSLAX34Y34*%
G01*
G70*
G90*
G04 APERTURE LIST*
%ADD10C,0.006*%
G04 APERTURE END LIST*
G54D10*
G36*
X2609Y30814D02*
X2608Y30763D01*
X2596Y30711D01*
X2578Y30672D01*
X2547Y30628D01*
X2516Y30598D01*
X2471Y30569D01*
X2430Y30553D01*
X2377Y30544D01*
X2334Y30545D01*
X2281Y30557D01*
X2242Y30574D01*
X2198Y30605D01*
X2168Y30636D01*
X2138Y30681D01*
X2123Y30721D01*
X2113Y30774D01*
X2113Y30817D01*
X2125Y30870D01*
X2142Y30909D01*
X2172Y30954D01*
X2203Y30984D01*
X2248Y31014D01*
X2288Y31030D01*
X2342Y31040D01*
X2384Y31040D01*
X2438Y31029D01*
X2476Y31012D01*
X2522Y30982D01*
X2552Y30952D01*
X2582Y30906D01*
X2598Y30867D01*
X2609Y30814D01*
X2609Y30814D01*
G37*
G36*
X2609Y28543D02*
X2606Y28377D01*
X2572Y28227D01*
X2514Y28096D01*
X2425Y27970D01*
X2321Y27871D01*
X2191Y27788D01*
X2057Y27737D01*
X1905Y27710D01*
X1761Y27713D01*
X1611Y27746D01*
X1479Y27803D01*
X1352Y27891D01*
X1253Y27994D01*
X1169Y28124D01*
X1117Y28258D01*
X1089Y28410D01*
X1091Y28553D01*
X1123Y28704D01*
X1179Y28836D01*
X1267Y28963D01*
X1369Y29063D01*
X1498Y29148D01*
X1631Y29202D01*
X1783Y29231D01*
X1926Y29230D01*
X2078Y29198D01*
X2209Y29143D01*
X2338Y29056D01*
X2438Y28955D01*
X2524Y28826D01*
X2579Y28694D01*
X2609Y28543D01*
X2609Y28543D01*
G37*
G36*
X2609Y26180D02*
X2606Y26015D01*
X2572Y25865D01*
X2514Y25734D01*
X2425Y25608D01*
X2321Y25509D01*
X2191Y25426D01*
X2057Y25374D01*
X1905Y25348D01*
X1761Y25351D01*
X1611Y25384D01*
X1479Y25441D01*
X1352Y25529D01*
X1253Y25632D01*
X1169Y25762D01*
X1117Y25895D01*
X1089Y26048D01*
X1091Y26191D01*
X1123Y26342D01*
X1179Y26473D01*
X1267Y26601D01*
X1369Y26701D01*
X1498Y26786D01*
X1631Y26839D01*
X1783Y26869D01*
X1926Y26868D01*
X2078Y26836D01*
X2209Y26781D01*
X2338Y26694D01*
X2438Y26593D01*
X2524Y26464D01*
X2579Y26332D01*
X2609Y26180D01*
X2609Y26180D01*
G37*
G36*
X4459Y27361D02*
X4457Y27196D01*
X4423Y27046D01*
X4364Y26915D01*
X4275Y26789D01*
X4171Y26690D01*
X4041Y26607D01*
X3907Y26555D01*
X3755Y26529D01*
X3612Y26532D01*
X3461Y26565D01*
X3330Y26622D01*
X3203Y26710D01*
X3103Y26813D01*
X3020Y26943D01*
X2967Y27076D01*
X2939Y27229D01*
X2941Y27372D01*
X2973Y27523D01*
X3029Y27654D01*
X3117Y27782D01*
X3219Y27882D01*
X3349Y27967D01*
X3481Y28021D01*
X3634Y28050D01*
X3776Y28049D01*
X3928Y28017D01*
X4060Y27962D01*
X4188Y27875D01*
X4289Y27774D01*
X4375Y27645D01*
X4429Y27513D01*
X4459Y27361D01*
X4459Y27361D01*
G37*
G36*
X5286Y30814D02*
X5285Y30763D01*
X5273Y30711D01*
X5256Y30672D01*
X5225Y30628D01*
X5193Y30598D01*
X5148Y30569D01*
X5108Y30553D01*
X5054Y30544D01*
X5011Y30545D01*
X4959Y30557D01*
X4919Y30574D01*
X4875Y30605D01*
X4845Y30636D01*
X4816Y30681D01*
X4800Y30721D01*
X4790Y30774D01*
X4791Y30817D01*
X4802Y30870D01*
X4819Y30909D01*
X4850Y30954D01*
X4880Y30984D01*
X4926Y31014D01*
X4965Y31030D01*
X5019Y31040D01*
X5061Y31040D01*
X5115Y31029D01*
X5153Y31012D01*
X5199Y30982D01*
X5229Y30952D01*
X5259Y30906D01*
X5275Y30867D01*
X5286Y30814D01*
X5286Y30814D01*
G37*
G36*
X6070Y2450D02*
X6064Y1991D01*
X5973Y1590D01*
X5810Y1224D01*
X5573Y888D01*
X5282Y612D01*
X4935Y391D01*
X4561Y247D01*
X4156Y175D01*
X3756Y184D01*
X3354Y272D01*
X2987Y432D01*
X2649Y667D01*
X2371Y955D01*
X2148Y1301D01*
X2001Y1673D01*
X1926Y2078D01*
X1932Y2478D01*
X2017Y2881D01*
X2175Y3249D01*
X2408Y3589D01*
X2694Y3869D01*
X3038Y4095D01*
X3409Y4244D01*
X3814Y4322D01*
X4214Y4319D01*
X4618Y4236D01*
X4986Y4081D01*
X5328Y3850D01*
X5610Y3567D01*
X5838Y3223D01*
X5990Y2854D01*
X6070Y2450D01*
X6070Y2450D01*
G37*
G36*
X6350Y29701D02*
X6349Y29628D01*
X6333Y29556D01*
X6307Y29498D01*
X6264Y29438D01*
X6218Y29394D01*
X6156Y29354D01*
X6097Y29331D01*
X6024Y29318D01*
X5961Y29320D01*
X5888Y29336D01*
X5830Y29361D01*
X5769Y29403D01*
X5725Y29449D01*
X5685Y29511D01*
X5662Y29570D01*
X5648Y29643D01*
X5649Y29706D01*
X5665Y29779D01*
X5690Y29836D01*
X5732Y29898D01*
X5777Y29942D01*
X5839Y29983D01*
X5897Y30006D01*
X5971Y30020D01*
X6033Y30020D01*
X6107Y30005D01*
X6164Y29981D01*
X6226Y29939D01*
X6270Y29895D01*
X6312Y29832D01*
X6336Y29774D01*
X6350Y29701D01*
X6350Y29701D01*
G37*
G36*
X7350Y29701D02*
X7349Y29628D01*
X7333Y29556D01*
X7307Y29498D01*
X7264Y29438D01*
X7218Y29394D01*
X7156Y29354D01*
X7097Y29331D01*
X7024Y29318D01*
X6961Y29320D01*
X6888Y29336D01*
X6830Y29361D01*
X6769Y29403D01*
X6725Y29449D01*
X6685Y29511D01*
X6662Y29570D01*
X6648Y29643D01*
X6649Y29706D01*
X6665Y29779D01*
X6690Y29836D01*
X6732Y29898D01*
X6777Y29942D01*
X6839Y29983D01*
X6897Y30006D01*
X6971Y30020D01*
X7033Y30020D01*
X7107Y30005D01*
X7164Y29981D01*
X7226Y29939D01*
X7270Y29895D01*
X7312Y29832D01*
X7336Y29774D01*
X7350Y29701D01*
X7350Y29701D01*
G37*
G36*
X8260Y28879D02*
X8258Y28743D01*
X8230Y28617D01*
X8181Y28509D01*
X8107Y28404D01*
X8021Y28322D01*
X7913Y28253D01*
X7802Y28210D01*
X7675Y28188D01*
X7557Y28190D01*
X7431Y28218D01*
X7323Y28265D01*
X7217Y28339D01*
X7135Y28424D01*
X7065Y28533D01*
X7021Y28642D01*
X6998Y28769D01*
X7000Y28887D01*
X7027Y29014D01*
X7073Y29122D01*
X7146Y29229D01*
X7230Y29311D01*
X7339Y29382D01*
X7448Y29426D01*
X7575Y29451D01*
X7693Y29450D01*
X7820Y29424D01*
X7928Y29378D01*
X8036Y29305D01*
X8118Y29222D01*
X8190Y29114D01*
X8235Y29006D01*
X8260Y28879D01*
X8260Y28879D01*
G37*
G36*
X8985Y30153D02*
X8984Y30075D01*
X8967Y30000D01*
X8939Y29938D01*
X8894Y29874D01*
X8846Y29828D01*
X8780Y29786D01*
X8717Y29762D01*
X8640Y29748D01*
X8573Y29750D01*
X8497Y29766D01*
X8435Y29793D01*
X8371Y29838D01*
X8325Y29886D01*
X8282Y29952D01*
X8258Y30014D01*
X8243Y30091D01*
X8244Y30158D01*
X8261Y30235D01*
X8287Y30296D01*
X8331Y30361D01*
X8379Y30408D01*
X8445Y30451D01*
X8506Y30476D01*
X8584Y30490D01*
X8650Y30490D01*
X8728Y30474D01*
X8789Y30448D01*
X8854Y30404D01*
X8901Y30357D01*
X8945Y30291D01*
X8970Y30230D01*
X8985Y30153D01*
X8985Y30153D01*
G37*
G36*
X9970Y30153D02*
X9969Y30075D01*
X9952Y30000D01*
X9924Y29938D01*
X9879Y29874D01*
X9831Y29828D01*
X9765Y29786D01*
X9702Y29762D01*
X9625Y29748D01*
X9558Y29750D01*
X9482Y29766D01*
X9420Y29793D01*
X9356Y29838D01*
X9310Y29886D01*
X9267Y29952D01*
X9243Y30014D01*
X9228Y30091D01*
X9229Y30158D01*
X9246Y30235D01*
X9272Y30296D01*
X9316Y30361D01*
X9364Y30408D01*
X9430Y30451D01*
X9491Y30476D01*
X9569Y30490D01*
X9635Y30490D01*
X9713Y30474D01*
X9774Y30448D01*
X9839Y30404D01*
X9886Y30357D01*
X9930Y30291D01*
X9955Y30230D01*
X9970Y30153D01*
X9970Y30153D01*
G37*
G36*
X10955Y30153D02*
X10954Y30075D01*
X10937Y30000D01*
X10909Y29938D01*
X10864Y29874D01*
X10816Y29828D01*
X10750Y29786D01*
X10687Y29762D01*
X10610Y29748D01*
X10543Y29750D01*
X10467Y29766D01*
X10405Y29793D01*
X10341Y29838D01*
X10295Y29886D01*
X10252Y29952D01*
X10228Y30014D01*
X10213Y30091D01*
X10214Y30158D01*
X10231Y30235D01*
X10257Y30296D01*
X10301Y30361D01*
X10349Y30408D01*
X10415Y30451D01*
X10476Y30476D01*
X10554Y30490D01*
X10620Y30490D01*
X10698Y30474D01*
X10759Y30448D01*
X10824Y30404D01*
X10871Y30357D01*
X10915Y30291D01*
X10940Y30230D01*
X10955Y30153D01*
X10955Y30153D01*
G37*
G36*
X12200Y28879D02*
X12198Y28743D01*
X12170Y28617D01*
X12121Y28509D01*
X12047Y28404D01*
X11961Y28322D01*
X11853Y28253D01*
X11742Y28210D01*
X11615Y28188D01*
X11497Y28190D01*
X11371Y28218D01*
X11263Y28265D01*
X11157Y28339D01*
X11075Y28424D01*
X11005Y28533D01*
X10961Y28642D01*
X10938Y28769D01*
X10940Y28887D01*
X10967Y29014D01*
X11013Y29122D01*
X11086Y29229D01*
X11170Y29311D01*
X11279Y29382D01*
X11388Y29426D01*
X11515Y29451D01*
X11633Y29450D01*
X11760Y29424D01*
X11868Y29378D01*
X11976Y29305D01*
X12058Y29222D01*
X12130Y29114D01*
X12175Y29006D01*
X12200Y28879D01*
X12200Y28879D01*
G37*
G36*
X12770Y27553D02*
X12769Y27475D01*
X12752Y27400D01*
X12724Y27338D01*
X12679Y27274D01*
X12631Y27228D01*
X12565Y27186D01*
X12502Y27162D01*
X12425Y27148D01*
X12358Y27150D01*
X12282Y27166D01*
X12220Y27193D01*
X12156Y27238D01*
X12110Y27286D01*
X12067Y27352D01*
X12043Y27414D01*
X12028Y27491D01*
X12029Y27558D01*
X12046Y27635D01*
X12072Y27696D01*
X12116Y27761D01*
X12164Y27808D01*
X12230Y27851D01*
X12291Y27876D01*
X12369Y27890D01*
X12435Y27890D01*
X12513Y27874D01*
X12574Y27848D01*
X12639Y27804D01*
X12686Y27757D01*
X12730Y27691D01*
X12755Y27630D01*
X12770Y27553D01*
X12770Y27553D01*
G37*
G36*
X13770Y27553D02*
X13769Y27475D01*
X13752Y27400D01*
X13724Y27338D01*
X13679Y27274D01*
X13631Y27228D01*
X13565Y27186D01*
X13502Y27162D01*
X13425Y27148D01*
X13358Y27150D01*
X13282Y27166D01*
X13220Y27193D01*
X13156Y27238D01*
X13110Y27286D01*
X13067Y27352D01*
X13043Y27414D01*
X13028Y27491D01*
X13029Y27558D01*
X13046Y27635D01*
X13072Y27696D01*
X13116Y27761D01*
X13164Y27808D01*
X13230Y27851D01*
X13291Y27876D01*
X13369Y27890D01*
X13435Y27890D01*
X13513Y27874D01*
X13574Y27848D01*
X13639Y27804D01*
X13686Y27757D01*
X13730Y27691D01*
X13755Y27630D01*
X13770Y27553D01*
X13770Y27553D01*
G37*
G36*
X14770Y27553D02*
X14769Y27475D01*
X14752Y27400D01*
X14724Y27338D01*
X14679Y27274D01*
X14631Y27228D01*
X14565Y27186D01*
X14502Y27162D01*
X14425Y27148D01*
X14358Y27150D01*
X14282Y27166D01*
X14220Y27193D01*
X14156Y27238D01*
X14110Y27286D01*
X14067Y27352D01*
X14043Y27414D01*
X14028Y27491D01*
X14029Y27558D01*
X14046Y27635D01*
X14072Y27696D01*
X14116Y27761D01*
X14164Y27808D01*
X14230Y27851D01*
X14291Y27876D01*
X14369Y27890D01*
X14435Y27890D01*
X14513Y27874D01*
X14574Y27848D01*
X14639Y27804D01*
X14686Y27757D01*
X14730Y27691D01*
X14755Y27630D01*
X14770Y27553D01*
X14770Y27553D01*
G37*
G36*
X14870Y12073D02*
X14852Y10763D01*
X14596Y9635D01*
X14130Y8588D01*
X13463Y7643D01*
X12633Y6853D01*
X11657Y6233D01*
X10588Y5819D01*
X9449Y5618D01*
X8304Y5642D01*
X7174Y5890D01*
X6124Y6349D01*
X5174Y7009D01*
X4379Y7833D01*
X3752Y8806D01*
X3330Y9871D01*
X3121Y11009D01*
X3137Y12154D01*
X3378Y13286D01*
X3829Y14339D01*
X4483Y15293D01*
X5301Y16095D01*
X6269Y16728D01*
X7331Y17157D01*
X8468Y17374D01*
X9613Y17366D01*
X10747Y17133D01*
X11802Y16690D01*
X12762Y16042D01*
X13569Y15230D01*
X14209Y14266D01*
X14645Y13208D01*
X14870Y12073D01*
X14870Y12073D01*
G37*
G36*
X15770Y27553D02*
X15769Y27475D01*
X15752Y27400D01*
X15724Y27338D01*
X15679Y27274D01*
X15631Y27228D01*
X15565Y27186D01*
X15502Y27162D01*
X15425Y27148D01*
X15358Y27150D01*
X15282Y27166D01*
X15220Y27193D01*
X15156Y27238D01*
X15110Y27286D01*
X15067Y27352D01*
X15043Y27414D01*
X15028Y27491D01*
X15029Y27558D01*
X15046Y27635D01*
X15072Y27696D01*
X15116Y27761D01*
X15164Y27808D01*
X15230Y27851D01*
X15291Y27876D01*
X15369Y27890D01*
X15435Y27890D01*
X15513Y27874D01*
X15574Y27848D01*
X15639Y27804D01*
X15686Y27757D01*
X15730Y27691D01*
X15755Y27630D01*
X15770Y27553D01*
X15770Y27553D01*
G37*
G36*
X16070Y2450D02*
X16064Y1991D01*
X15973Y1590D01*
X15810Y1224D01*
X15573Y888D01*
X15282Y612D01*
X14935Y391D01*
X14561Y247D01*
X14156Y175D01*
X13756Y184D01*
X13354Y272D01*
X12987Y432D01*
X12649Y667D01*
X12371Y955D01*
X12148Y1301D01*
X12001Y1673D01*
X11926Y2078D01*
X11932Y2478D01*
X12017Y2881D01*
X12175Y3249D01*
X12408Y3589D01*
X12694Y3869D01*
X13038Y4095D01*
X13409Y4244D01*
X13814Y4322D01*
X14214Y4319D01*
X14618Y4236D01*
X14986Y4081D01*
X15328Y3850D01*
X15610Y3567D01*
X15838Y3223D01*
X15990Y2854D01*
X16070Y2450D01*
X16070Y2450D01*
G37*
G36*
X16770Y27553D02*
X16769Y27475D01*
X16752Y27400D01*
X16724Y27338D01*
X16679Y27274D01*
X16631Y27228D01*
X16565Y27186D01*
X16502Y27162D01*
X16425Y27148D01*
X16358Y27150D01*
X16282Y27166D01*
X16220Y27193D01*
X16156Y27238D01*
X16110Y27286D01*
X16067Y27352D01*
X16043Y27414D01*
X16028Y27491D01*
X16029Y27558D01*
X16046Y27635D01*
X16072Y27696D01*
X16116Y27761D01*
X16164Y27808D01*
X16230Y27851D01*
X16291Y27876D01*
X16369Y27890D01*
X16435Y27890D01*
X16513Y27874D01*
X16574Y27848D01*
X16639Y27804D01*
X16686Y27757D01*
X16730Y27691D01*
X16755Y27630D01*
X16770Y27553D01*
X16770Y27553D01*
G37*
G36*
X17770Y27553D02*
X17769Y27475D01*
X17752Y27400D01*
X17724Y27338D01*
X17679Y27274D01*
X17631Y27228D01*
X17565Y27186D01*
X17502Y27162D01*
X17425Y27148D01*
X17358Y27150D01*
X17282Y27166D01*
X17220Y27193D01*
X17156Y27238D01*
X17110Y27286D01*
X17067Y27352D01*
X17043Y27414D01*
X17028Y27491D01*
X17029Y27558D01*
X17046Y27635D01*
X17072Y27696D01*
X17116Y27761D01*
X17164Y27808D01*
X17230Y27851D01*
X17291Y27876D01*
X17369Y27890D01*
X17435Y27890D01*
X17513Y27874D01*
X17574Y27848D01*
X17639Y27804D01*
X17686Y27757D01*
X17730Y27691D01*
X17755Y27630D01*
X17770Y27553D01*
X17770Y27553D01*
G37*
M02*
