G04 (created by PCBNEW (2013-07-07 BZR 4022)-stable) date 1/16/2014 12:37:25 PM*
%MOIN*%
G04 Gerber Fmt 3.4, Leading zero omitted, Abs format*
%FSLAX34Y34*%
G01*
G70*
G90*
G04 APERTURE LIST*
%ADD10C,0.006*%
%ADD11C,0.015*%
%ADD12C,0.008*%
%ADD13C,0.074*%
%ADD14C,0.07*%
%ADD15C,0.151795*%
%ADD16C,1.174*%
%ADD17C,0.0494331*%
%ADD18C,0.126*%
%ADD19C,0.414*%
G04 APERTURE END LIST*
G54D10*
G54D11*
X3621Y30124D02*
X77Y30124D01*
X3621Y31502D02*
X77Y31502D01*
X3621Y31502D02*
X3621Y25833D01*
X3621Y25833D02*
X77Y25833D01*
X77Y31502D02*
X77Y25833D01*
G54D12*
X2685Y30666D02*
X2704Y30647D01*
X2761Y30628D01*
X2800Y30628D01*
X2857Y30647D01*
X2895Y30685D01*
X2914Y30723D01*
X2933Y30799D01*
X2933Y30856D01*
X2914Y30932D01*
X2895Y30970D01*
X2857Y31009D01*
X2800Y31028D01*
X2761Y31028D01*
X2704Y31009D01*
X2685Y30990D01*
X2438Y31028D02*
X2361Y31028D01*
X2323Y31009D01*
X2285Y30970D01*
X2266Y30894D01*
X2266Y30761D01*
X2285Y30685D01*
X2323Y30647D01*
X2361Y30628D01*
X2438Y30628D01*
X2476Y30647D01*
X2514Y30685D01*
X2533Y30761D01*
X2533Y30894D01*
X2514Y30970D01*
X2476Y31009D01*
X2438Y31028D01*
X2095Y30628D02*
X2095Y31028D01*
X1866Y30628D01*
X1866Y31028D01*
X1466Y30628D02*
X1695Y30628D01*
X1580Y30628D02*
X1580Y31028D01*
X1619Y30970D01*
X1657Y30932D01*
X1695Y30913D01*
%LPC*%
G54D13*
X17400Y27520D03*
X16400Y27520D03*
X15400Y27520D03*
X14400Y27520D03*
X13400Y27520D03*
X12400Y27520D03*
G54D14*
X7000Y29670D03*
X6000Y29670D03*
G54D15*
X1849Y26108D03*
X1849Y28471D03*
X3700Y27290D03*
G54D16*
X9000Y11500D03*
G54D17*
X2361Y30792D03*
X5038Y30792D03*
G54D13*
X10585Y30120D03*
X9600Y30120D03*
X8615Y30120D03*
G54D18*
X11570Y28820D03*
X7630Y28820D03*
G54D19*
X4000Y2250D03*
X14000Y2250D03*
M02*
