M48
;DRILL file {Pcbnew (2013-07-07 BZR 4022)-stable} date 1/16/2014 12:38:07 PM
;FORMAT={2:4/ absolute / inch / keep zeros}
FMAT,2
INCH,TZ
T1C0.015
T2C0.035
T3C0.036
T4C0.040
T5C0.075
T6C0.112
T7C0.265
T8C1.142
%
G90
G05
M72
T1
X001585Y011496
X002009Y011496
X002435Y011494
X003750Y023700
X005002Y020547
X005250Y022450
X005289Y005065
X005304Y017877
X005499Y005437
X005500Y017560
X005550Y018700
X005682Y017247
X005697Y005785
X005900Y018700
X006250Y018700
X006600Y018700
X006650Y021600
X007000Y021900
X007000Y021250
X007002Y021580
X007350Y021600
X008500Y005250
X009000Y004750
X009025Y022350
X009025Y021400
X009025Y020450
X009227Y023372
X009400Y020950
X009500Y004250
X009775Y022350
X009850Y025800
X010250Y021850
X010400Y024750
X010450Y024000
X011450Y025000
X011450Y018700
X011577Y025676
X011650Y024150
X011800Y018700
X012000Y024450
X012000Y024140
X012000Y023800
X012150Y018700
X012279Y017172
X012300Y005803
X012350Y024150
X012492Y005443
X012495Y017553
X012500Y018700
X012690Y017928
X012699Y005080
X013550Y023000
X014002Y025036
X015100Y023050
X015573Y011492
X015702Y023363
X016011Y011486
X016428Y011483
T2
X002361Y030793
X005039Y030793
T3
X006000Y029670
X007000Y029670
T4
X008615Y030120
X009600Y030120
X010585Y030120
X012400Y027520
X013400Y027520
X014400Y027520
X015400Y027520
X016400Y027520
X017400Y027520
T5
X001850Y028471
X001850Y026109
X003700Y027290
T6
X007630Y028820
X011570Y028820
T7
X004000Y002250
X014000Y002250
T8
X009000Y011500
T0
M30
